<svg width="32" height="32" viewBox="0 0 32 32" fill="none" xmlns="http://www.w3.org/2000/svg">
  <!-- Background Circle -->
  <circle cx="16" cy="16" r="15" fill="#0b5b80"/>
  
  <!-- Hand/Palm shape -->
  <path d="M8 14C6.9 14 6 14.9 6 16C6 17.1 6.9 18 8 18V22C8 23.1 8.9 24 10 24H16C17.1 24 18 23.1 18 22V14C18 12.9 17.1 12 16 12C15 12 14.1 12.7 14 13.6C13.1 12.7 12 12 10.8 12C9.7 12 8.8 12.7 8.3 13.6C7.5 13 6.8 12.8 6.3 13.1C5.8 13.4 5.8 14.1 6.3 14.6C7 15.3 7.5 14 8 14Z" fill="#ffffff" opacity="0.8"/>
  
  <!-- Heart inside/above hand -->
  <path d="M13 16C13 15.4 13.4 15 14 15C14.3 15 14.6 15.1 14.8 15.3C15 15.1 15.3 15 15.6 15C16.2 15 16.6 15.4 16.6 16C16.6 16.3 16.5 16.6 16.3 16.8L15 18.3C14.6 18.8 14 18.8 13.6 18.3L12.3 16.8C12.1 16.6 12 16.3 12 16C12 15.4 12.4 15 13 15Z" fill="#ff6b6b"/>
  
  <!-- Accent circle for depth -->
  <circle cx="14.8" cy="16" r="1.5" fill="#0b5b80" opacity="0.3"/>
</svg>
